<?xml version="1.0" standalone="no"?><!DOCTYPE svg PUBLIC "-//W3C//DTD SVG 1.1//EN" "http://www.w3.org/Graphics/SVG/1.1/DTD/svg11.dtd"><svg t="1736284316634" class="icon" viewBox="0 0 1024 1024" version="1.1" xmlns="http://www.w3.org/2000/svg" p-id="6684" xmlns:xlink="http://www.w3.org/1999/xlink" width="200" height="200"><path d="M362.666667 810.666667h298.666666v106.666666H362.666667z" fill="#E9FF5B" p-id="6685"></path><path d="M512 85.333333a192 192 0 0 1 192 192v234.666667c0 25.813333-6.869333 44.842667-23.765333 77.077333-7.36 14.037333-7.978667 15.210667-10.410667 20.416-5.824 12.458667-8.490667 21.802667-8.490667 30.506667 0 11.52 3.882667 20.117333 16.170667 38.314667l1.493333 2.218666C697.045333 707.242667 704 722.474667 704 746.666667v149.333333a42.666667 42.666667 0 0 1-42.666667 42.666667H362.666667a42.666667 42.666667 0 0 1-42.666667-42.666667v-149.333333c0-24.170667 6.912-39.36 24.981333-66.112l1.28-1.92c12.501333-18.496 16.405333-27.093333 16.405334-38.826667 0-8.661333-2.645333-17.941333-8.448-30.336a404.458667 404.458667 0 0 0-10.453334-20.458667C326.912 556.864 320 537.813333 320 512V277.333333a192 192 0 0 1 192-192z m0 725.333334c-49.578667 0-99.306667 11.52-149.333333 34.730666V896h298.666666v-50.602667C611.306667 822.186667 561.578667 810.666667 512 810.666667z m-149.333333-533.333334v234.666667c0 16.917333 5.013333 30.784 18.88 57.173333 7.850667 14.933333 8.469333 16.128 11.306666 22.229334 8.234667 17.536 12.48 32.448 12.48 48.405333 0 22.698667-6.741333 37.568-23.68 62.698667l-1.301333 1.92C366.762667 724.544 362.666667 733.525333 362.666667 746.666667v52.138666C412.288 778.304 462.08 768 512 768s99.754667 10.304 149.333333 30.826667V746.666667c0-13.141333-4.117333-22.186667-17.664-42.24l-1.514666-2.24C625.386667 677.376 618.666667 662.506667 618.666667 640c0-16 4.266667-30.933333 12.501333-48.576 2.837333-6.08 3.498667-7.338667 11.264-22.186667 13.866667-26.453333 18.901333-40.32 18.901333-57.237333V277.333333H362.666667z m149.333333 64a21.333333 21.333333 0 0 1 21.333333 21.333334v42.666666a21.333333 21.333333 0 0 1-42.666666 0v-42.666666a21.333333 21.333333 0 0 1 21.333333-21.333334z m0-213.333333a149.397333 149.397333 0 0 0-143.146667 106.666667h286.293334c-18.346667-61.696-75.498667-106.666667-143.146667-106.666667z" fill="#4E4E4E" p-id="6686"></path></svg>